Release Info:

General

Format                                   : Matroska
Format version                           : Version 2
File size                                : 689 MiB
Duration                                 : 2h 21mn
Overall bit rate                         : 680 Kbps


Video
ID                                       : 1
Format                                   : MPEG-4 Visual
Format profile                           : Advanced Simple@L5
Format settings, BVOP                    : Yes
Format settings, QPel                    : No
Format settings, GMC                     : No warppoints
Format settings, Matrix                  : Default (H.263)
Codec ID                                 : V_MS/VFW/FOURCC / XVID
Codec ID/Hint                            : XviD
Duration                                 : 2h 21mn
Bit rate                                 : 602 Kbps
Width                                    : 640 pixels
Height                                   : 272 pixels
Display aspect ratio                     : 2.35:1
Frame rate mode                          : Constant
Frame rate                               : 25.000 fps
Color space                              : YUV
Chroma subsampling                       : 4:2:0
Bit depth                                : 8 bits
Scan type                                : Progressive
Compression mode                         : Lossy
Bits/(Pixel*Frame)                       : 0.138
Stream size                              : 610 MiB (89%)
Writing library                          : XviD 1.2.1 (UTC 2008-12-04)
Default                                  : Yes
Forced                                   : No

Audio
ID                                       : 2
Format                                   : MPEG Audio
Format version                           : Version 2
Format profile                           : Layer 3
Mode                                     : Joint stereo
Mode extension                           : MS Stereo
Muxing mode                              : Header stripping
Codec ID                                 : A_MPEG/L3
Codec ID/Hint                            : MP3
Duration                                 : 2h 21mn
Bit rate mode                            : Constant
Bit rate                                 : 64.0 Kbps
Channel(s)                               : 2 channels
Sampling rate                            : 24.0 KHz
Compression mode                         : Lossy
Stream size                              : 64.8 MiB (9%)
Writing library                          : LAME3.99r
Encoding settings                        : -m j -V 4 -q 2 -lowpass 11 -b 64
Default                                  : Yes
Forced                                   : No


Source:

credit to original movie ripper (Thanks)

Thanks to Doridro Entertainment Team,  ..ShOpNoHiN..

Movie Info:

Director:
Sujit Mondal
Producer:
Sree Venkatesh Films, Surinder Films
Music:
Jeet Ganguly
Main Cast:
Dev, Koel Mallick, Tota Ray Chowdhury, Rajatava Dutta...  more
Genre:
Action, Drama, Romance
Release:
Aug 31, 2012

Story:

Dev who plays Dev here is a hopeless character and he is after every girl in the village. One day he decides to turn into a new leaf and decides to go to Kolkata to get a degree. A chance encounter with Rhea changes everything and getting his degree becomes his latest priority and winning over Rhea becomes his biggest priority instead. However before that he has to take care of Rudra,a big goon whom everyone fears and he ΓÇÿlovesΓÇÖ Rhea. He does somewhat take care of Rudra for a while , but then has other factors to take care in the form of Dubai Keshto and his love crazy daughter....

Screen Shot:
 
http://www.shotpix.com/images/06466520769391443864.jpg 
http://www.shotpix.com/images/94328238430707829421.jpg 
http://www.shotpix.com/images/77033135097668187088.jpg 
http://www.shotpix.com/images/94353588961766639180.jpg 
http://www.shotpix.com/images/18222488157636156812.jpg 
http://www.shotpix.com/images/83100937662000942616.jpg 
http://www.shotpix.com/images/85745407588675708701.jpg 
http://www.shotpix.com/images/38158101436866465980.jpg 
http://www.shotpix.com/images/45359303627262395274.jpg